<?xml version="1.0" standalone="no"?>
<!DOCTYPE svg PUBLIC "-//W3C//DTD SVG 20010904//EN"
 "http://www.w3.org/TR/2001/REC-SVG-20010904/DTD/svg10.dtd">
<svg version="1.0" xmlns="http://www.w3.org/2000/svg"
 width="1280.000000pt" height="831.000000pt" viewBox="0 0 1280.000000 831.000000"
 preserveAspectRatio="xMidYMid meet">
<metadata>
Created by potrace 1.15, written by Peter Selinger 2001-2017
</metadata>
<g transform="translate(0.000000,831.000000) scale(0.100000,-0.100000)"
fill="#000000" stroke="none">
<path d="M6110 6330 c-16 -17 -30 -43 -32 -58 -5 -41 -39 -40 -103 3 -97 64
-145 77 -176 49 -10 -9 -36 -18 -58 -21 -43 -6 -48 -12 -30 -30 6 -6 9 -16 5
-21 -7 -11 -103 -24 -218 -28 -116 -4 -155 -24 -197 -99 -38 -66 -98 -135
-118 -135 -33 0 -130 -64 -168 -110 -36 -45 -44 -50 -81 -50 -27 0 -51 -7 -68
-21 -24 -19 -36 -21 -96 -16 -63 5 -75 3 -129 -24 -59 -29 -79 -57 -66 -91 3
-8 -3 -23 -15 -33 -11 -10 -20 -24 -20 -32 0 -15 -6 -16 -83 -13 -39 1 -65 -3
-82 -14 -20 -13 -39 -15 -88 -10 -117 12 -241 -35 -253 -95 -12 -63 -20 -76
-64 -99 -96 -51 -117 -126 -96 -342 8 -80 17 -217 21 -305 7 -186 27 -340 60
-479 29 -117 22 -138 -59 -180 -26 -13 -33 -13 -68 1 -72 29 -201 -7 -227 -64
-15 -33 -50 -50 -110 -56 -43 -3 -57 -1 -72 14 -29 29 -79 24 -146 -14 -58
-33 -59 -33 -84 -15 -23 17 -28 17 -76 3 -46 -14 -102 -39 -212 -93 -18 -9
-40 -28 -49 -41 -13 -19 -22 -22 -50 -17 -19 3 -52 14 -73 25 -85 45 -138 -29
-89 -124 11 -22 20 -47 20 -56 0 -16 -60 -69 -78 -69 -5 0 -31 -12 -58 -27
-41 -23 -62 -28 -129 -29 -56 0 -90 -6 -113 -18 -29 -16 -39 -17 -77 -6 -60
17 -96 6 -155 -47 -38 -34 -53 -56 -61 -89 -14 -53 -51 -84 -101 -84 -18 0
-44 -7 -57 -16 -24 -17 -25 -29 -5 -131 5 -28 2 -33 -24 -47 -17 -9 -39 -16
-50 -16 -39 0 -126 -33 -150 -57 -30 -30 -99 -56 -129 -48 -12 3 -35 17 -50
31 -15 14 -55 40 -88 58 -56 29 -67 31 -160 30 -100 0 -100 0 -165 -42 -35
-23 -75 -42 -89 -42 -42 0 -101 -20 -145 -48 -44 -29 -42 -28 -316 -36 -140
-4 -148 -5 -225 -39 -68 -30 -84 -42 -108 -81 -32 -51 -29 -65 28 -121 39 -40
118 -60 179 -46 24 6 48 6 65 0 56 -22 113 -27 161 -14 56 15 157 60 180 80
22 19 118 3 136 -24 8 -11 32 -22 54 -26 50 -8 50 -21 5 -81 -19 -25 -38 -63
-41 -85 -6 -38 -8 -39 -55 -45 -89 -12 -73 -40 43 -75 54 -17 68 -25 78 -49
11 -26 36 -47 111 -93 25 -15 42 -58 33 -82 -3 -6 -33 -16 -68 -22 -81 -14
-120 -42 -136 -98 -14 -51 -6 -72 45 -111 69 -53 282 -82 359 -50 18 7 47 31
64 52 l31 38 55 -28 c30 -15 71 -47 89 -70 41 -49 108 -85 174 -92 45 -6 51
-3 98 34 56 44 158 86 189 77 12 -3 39 -21 61 -41 51 -45 41 -64 -41 -82 -119
-27 -158 -56 -169 -123 -7 -39 -5 -45 19 -66 23 -19 39 -23 99 -24 203 -3 211
-4 242 -26 49 -35 138 -56 220 -51 57 2 85 10 135 36 35 18 64 31 66 30 1 -2
9 -20 17 -40 17 -41 63 -74 115 -84 19 -4 36 -14 39 -23 32 -104 125 -183 246
-211 70 -15 177 18 257 80 29 23 49 29 113 34 59 5 77 4 78 -6 2 -32 11 -73
19 -89 14 -26 124 -59 196 -59 65 0 77 -7 88 -51 5 -24 11 -27 68 -33 285 -27
313 -25 356 17 16 16 26 40 29 70 5 39 2 49 -21 72 -14 14 -26 28 -26 30 0 2
23 6 50 10 68 9 82 -2 64 -53 -28 -78 -13 -123 44 -139 15 -5 97 -8 183 -8
151 0 158 1 215 28 l59 28 59 -30 c32 -17 66 -31 76 -31 25 0 37 -20 37 -58 0
-39 33 -78 77 -90 46 -13 252 -5 280 10 13 7 40 33 60 56 28 34 36 53 36 83 0
34 3 40 28 46 58 16 165 9 230 -16 51 -19 75 -23 128 -18 l65 5 24 -49 c33
-64 58 -79 162 -94 88 -13 171 -8 210 13 54 30 84 121 57 174 -20 40 -17 48
17 48 36 0 69 -16 69 -33 0 -17 45 -64 78 -81 37 -19 82 -25 184 -28 83 -1 89
-3 105 -27 22 -34 43 -50 68 -51 42 -1 48 -13 36 -72 -10 -47 -9 -62 4 -96 14
-33 25 -44 68 -62 72 -32 142 -37 287 -24 87 8 141 18 174 33 l49 21 -6 45
c-8 56 -34 92 -109 151 -87 68 -76 91 28 59 27 -9 85 -18 129 -22 86 -6 113 2
165 47 19 17 33 20 60 16 86 -14 280 -26 335 -22 45 4 63 10 74 26 8 11 25 20
40 20 32 0 118 49 148 84 22 25 28 26 115 26 l93 -1 30 -39 c17 -21 46 -47 65
-58 45 -26 132 -42 176 -32 42 10 144 49 162 63 43 33 77 44 111 35 19 -6 83
-8 141 -6 95 3 110 6 160 34 51 29 64 32 177 37 133 6 176 20 195 63 15 32 -1
97 -37 155 -32 49 -25 62 20 43 35 -14 103 -18 142 -8 34 9 37 39 13 115 l-23
70 22 23 c12 13 39 31 60 41 38 17 41 16 129 -9 110 -31 190 -33 251 -6 24 11
49 20 56 20 23 0 53 84 62 171 7 73 10 84 27 84 14 0 23 -12 33 -42 8 -23 31
-61 51 -83 35 -40 41 -42 104 -47 82 -7 103 -2 164 40 27 18 60 38 74 45 89
44 145 109 156 182 l9 55 95 0 c63 0 117 6 160 19 50 14 80 17 135 11 122 -12
285 -7 343 11 28 9 52 20 52 25 0 4 15 20 34 34 32 24 36 25 86 14 72 -15 116
-1 173 57 l45 45 64 -15 c138 -33 241 -27 373 21 122 44 148 99 80 168 -20 19
-42 35 -50 35 -19 0 -88 32 -97 45 -4 6 -8 23 -8 38 0 38 -23 90 -51 116 -32
30 -145 91 -199 107 -55 17 -111 18 -144 3 -30 -14 -77 -82 -86 -124 l-6 -29
-46 42 c-25 23 -63 48 -84 56 -32 11 -38 18 -36 37 4 36 -16 83 -49 115 -26
25 -39 29 -104 32 -83 5 -150 -13 -212 -55 -23 -16 -42 -22 -49 -17 -206 155
-257 182 -381 201 -29 5 -35 12 -53 62 -25 66 -44 89 -87 107 -67 29 -108 8
-133 -68 -6 -21 -15 -38 -19 -38 -5 0 -25 14 -46 30 -21 17 -42 30 -47 30 -6
0 -28 16 -51 35 -31 27 -50 35 -79 35 -54 0 -106 -24 -118 -55 -5 -14 -12 -25
-14 -25 -3 0 -21 24 -40 53 -67 100 -144 157 -213 157 -32 0 -93 -32 -120 -64
-23 -26 -23 -26 -63 -10 -48 19 -112 14 -140 -11 -23 -21 -30 -17 -54 28 l-18
36 73 98 c41 54 98 125 128 158 56 63 136 215 165 313 21 73 40 256 32 322 -6
61 -51 202 -86 271 -106 211 -367 363 -593 345 -45 -4 -113 -11 -152 -16 -153
-20 -417 -42 -441 -36 -28 7 -28 11 -3 209 6 43 10 112 10 154 0 92 -14 117
-85 151 -43 21 -47 25 -33 40 35 42 49 114 31 166 -39 113 -163 167 -264 116
-26 -13 -59 -20 -97 -20 -60 0 -131 -16 -194 -42 -60 -26 -87 5 -52 58 15 23
15 28 0 59 -25 52 -58 64 -193 68 -97 3 -127 8 -161 25 -23 12 -49 22 -57 22
-9 0 -21 10 -27 23 -6 12 -24 34 -39 48 -37 34 -48 95 -25 139 21 40 13 89
-18 117 -12 11 -44 32 -72 47 -53 29 -134 41 -265 38 l-65 -2 -50 -54 c-70
-76 -102 -81 -199 -29 l-71 38 -135 1 c-119 0 -139 3 -170 22 -36 22 -134 42
-206 42 -26 0 -51 7 -66 19 -13 11 -46 31 -73 45 -42 23 -60 26 -147 26 -98 0
-100 0 -128 -30z m3525 -1757 c184 -56 294 -223 295 -446 0 -97 -44 -239 -102
-330 -42 -64 -149 -177 -205 -215 -33 -23 -63 -29 -63 -12 0 16 -72 58 -119
69 -49 11 -61 23 -61 65 0 31 -24 66 -46 66 -7 0 -34 18 -59 40 -64 55 -77 61
-179 76 -105 16 -117 11 -135 -61 l-11 -43 -80 -4 c-99 -4 -119 7 -102 55 31
87 65 224 85 342 l22 130 45 41 c45 40 205 151 263 180 41 22 160 55 227 64
71 9 162 2 225 -17z"/>
<path d="M5610 933 c0 -6 -3 -20 -6 -30 -7 -17 -6 -17 12 -1 14 14 16 21 6 30
-8 8 -12 9 -12 1z"/>
</g>
</svg>
